<svg width="21" height="20" viewBox="0 0 21 20" fill="none" xmlns="http://www.w3.org/2000/svg">
<g id="&#236;&#149;&#132;&#236;&#157;&#180;&#236;&#189;&#152;" clip-path="url(#clip0_894_21312)">
<path id="Vector" d="M15.7496 4.75843C15.4246 4.43343 14.8996 4.43343 14.5746 4.75843L10.4996 8.8251L6.42461 4.7501C6.09961 4.4251 5.57461 4.4251 5.24961 4.7501C4.92461 5.0751 4.92461 5.6001 5.24961 5.9251L9.32461 10.0001L5.24961 14.0751C4.92461 14.4001 4.92461 14.9251 5.24961 15.2501C5.57461 15.5751 6.09961 15.5751 6.42461 15.2501L10.4996 11.1751L14.5746 15.2501C14.8996 15.5751 15.4246 15.5751 15.7496 15.2501C16.0746 14.9251 16.0746 14.4001 15.7496 14.0751L11.6746 10.0001L15.7496 5.9251C16.0663 5.60843 16.0663 5.0751 15.7496 4.75843Z" fill="#565656"/>
</g>
<defs>
<clipPath id="clip0_894_21312">
<rect width="20" height="20" fill="white" transform="translate(0.5)"/>
</clipPath>
</defs>
</svg>
