<svg width="20" height="20" viewBox="0 0 20 20" fill="none" xmlns="http://www.w3.org/2000/svg">
<g id="&#236;&#149;&#132;&#236;&#157;&#180;&#236;&#189;&#152;" clip-path="url(#clip0_1318_24548)">
<path id="Vector" d="M10 16.6667L9.28333 15.95C8.3 14.9667 8.30833 13.3667 9.3 12.4L10 11.7167C9.675 11.6834 9.43333 11.6667 9.16667 11.6667C6.94167 11.6667 2.5 12.7834 2.5 15V16.6667H10ZM9.16667 10C11.0083 10 12.5 8.50837 12.5 6.66671C12.5 4.82504 11.0083 3.33337 9.16667 3.33337C7.325 3.33337 5.83333 4.82504 5.83333 6.66671C5.83333 8.50837 7.325 10 9.16667 10Z" fill="#B1B5BB"/>
<path id="Vector_2" d="M13.4837 16.4833C13.1587 16.8083 12.6254 16.8083 12.3004 16.4833L10.5754 14.7416C10.2587 14.4166 10.2587 13.9 10.5754 13.5833L10.5837 13.575C10.9087 13.25 11.4337 13.25 11.7504 13.575L12.8921 14.7166L16.5837 11C16.9087 10.675 17.4337 10.675 17.7587 11L17.7671 11.0083C18.0837 11.3333 18.0837 11.85 17.7671 12.1666L13.4837 16.4833Z" fill="#B1B5BB"/>
</g>
<defs>
<clipPath id="clip0_1318_24548">
<rect width="20" height="20" fill="white"/>
</clipPath>
</defs>
</svg>
