<svg width="24" height="24" viewBox="0 0 24 24" fill="none" xmlns="http://www.w3.org/2000/svg">
<g id="&#236;&#149;&#132;&#236;&#157;&#180;&#236;&#189;&#152;" clip-path="url(#clip0_1886_5822)">
<path id="Vector" d="M6.66623 18.2222C6.66623 19.2 7.46623 20 8.44401 20H15.5551C16.5329 20 17.3329 19.2 17.3329 18.2222V9.33333C17.3329 8.35556 16.5329 7.55556 15.5551 7.55556H8.44401C7.46623 7.55556 6.66623 8.35556 6.66623 9.33333V18.2222ZM9.3329 9.33333H14.6662C15.1551 9.33333 15.5551 9.73333 15.5551 10.2222V17.3333C15.5551 17.8222 15.1551 18.2222 14.6662 18.2222H9.3329C8.84401 18.2222 8.44401 17.8222 8.44401 17.3333V10.2222C8.44401 9.73333 8.84401 9.33333 9.3329 9.33333ZM15.1107 4.88889L14.4796 4.25778C14.3196 4.09778 14.0885 4 13.8573 4H10.1418C9.91068 4 9.67957 4.09778 9.51957 4.25778L8.88845 4.88889H6.66623C6.17734 4.88889 5.77734 5.28889 5.77734 5.77778C5.77734 6.26667 6.17734 6.66667 6.66623 6.66667H17.3329C17.8218 6.66667 18.2218 6.26667 18.2218 5.77778C18.2218 5.28889 17.8218 4.88889 17.3329 4.88889H15.1107Z" fill="#565656"/>
</g>
<defs>
<clipPath id="clip0_1886_5822">
<rect width="24" height="24" fill="white"/>
</clipPath>
</defs>
</svg>
