<svg width="20" height="20" viewBox="0 0 20 20" fill="none" xmlns="http://www.w3.org/2000/svg">
<g id="&#236;&#149;&#132;&#236;&#157;&#180;&#236;&#189;&#152;">
<path id="Vector" d="M5.55519 15.1849C5.55519 15.9997 6.22186 16.6663 7.03668 16.6663H12.9626C13.7774 16.6663 14.4441 15.9997 14.4441 15.1849V7.77745C14.4441 6.96264 13.7774 6.29597 12.9626 6.29597H7.03668C6.22186 6.29597 5.55519 6.96264 5.55519 7.77745V15.1849ZM7.77742 7.77745H12.2219C12.6293 7.77745 12.9626 8.11079 12.9626 8.51819V14.4441C12.9626 14.8515 12.6293 15.1849 12.2219 15.1849H7.77742C7.37001 15.1849 7.03668 14.8515 7.03668 14.4441V8.51819C7.03668 8.11079 7.37001 7.77745 7.77742 7.77745ZM12.5922 4.07375L12.0663 3.54782C11.933 3.41449 11.7404 3.33301 11.5478 3.33301H8.45149C8.2589 3.33301 8.0663 3.41449 7.93297 3.54782L7.40705 4.07375H5.55519C5.14779 4.07375 4.81445 4.40708 4.81445 4.81449C4.81445 5.2219 5.14779 5.55523 5.55519 5.55523H14.4441C14.8515 5.55523 15.1848 5.2219 15.1848 4.81449C15.1848 4.40708 14.8515 4.07375 14.4441 4.07375H12.5922Z" fill="#B1B5BB"/>
</g>
</svg>
