<svg width="20" height="20" viewBox="0 0 20 20" fill="none" xmlns="http://www.w3.org/2000/svg">
<g clip-path="url(#clip0_894_23159)">
<path d="M10 6C10.825 6 11.5 5.325 11.5 4.5C11.5 3.675 10.825 3 10 3C9.175 3 8.5 3.675 8.5 4.5C8.5 5.325 9.175 6 10 6ZM10 8.5C9.175 8.5 8.5 9.175 8.5 10C8.5 10.825 9.175 11.5 10 11.5C10.825 11.5 11.5 10.825 11.5 10C11.5 9.175 10.825 8.5 10 8.5ZM10 14C9.175 14 8.5 14.675 8.5 15.5C8.5 16.325 9.175 17 10 17C10.825 17 11.5 16.325 11.5 15.5C11.5 14.675 10.825 14 10 14Z" fill="#B1B5BB"/>
</g>
<defs>
<clipPath id="clip0_894_23159">
<rect width="20" height="20" fill="white"/>
</clipPath>
</defs>
</svg>
